<mxfile host="www.draw.io" modified="2020-01-26T09:48:38.687Z" agent="Mozilla/5.0 (Windows NT 10.0; Win64; x64) AppleWebKit/537.36 (KHTML, like Gecko) Chrome/79.0.3945.130 Safari/537.36" etag="ZVHgiwWIOYo4N_KW6SqZ" version="12.5.8" type="github">
  <diagram id="C5RBs43oDa-KdzZeNtuy" name="Page-1">
    <mxGraphModel dx="1173" dy="723" grid="1" gridSize="10" guides="1" tooltips="1" connect="1" arrows="1" fold="1" page="1" pageScale="1" pageWidth="827" pageHeight="1169" math="0" shadow="0">
      <root>
        <mxCell id="WIyWlLk6GJQsqaUBKTNV-0"/>
        <mxCell id="WIyWlLk6GJQsqaUBKTNV-1" parent="WIyWlLk6GJQsqaUBKTNV-0"/>
        <mxCell id="zkfFHV4jXpPFQw0GAbJ--0" value="Mall Manager" style="swimlane;fontStyle=2;align=center;verticalAlign=top;childLayout=stackLayout;horizontal=1;startSize=26;horizontalStack=0;resizeParent=1;resizeLast=0;collapsible=1;marginBottom=0;rounded=0;shadow=0;strokeWidth=1;fontFamily=Courier New;" parent="WIyWlLk6GJQsqaUBKTNV-1" vertex="1">
          <mxGeometry x="40" y="40" width="260" height="250" as="geometry">
            <mxRectangle x="230" y="140" width="160" height="26" as="alternateBounds"/>
          </mxGeometry>
        </mxCell>
        <mxCell id="zkfFHV4jXpPFQw0GAbJ--1" value="Mall CurrentMall" style="text;align=left;verticalAlign=top;spacingLeft=4;spacingRight=4;overflow=hidden;rotatable=0;points=[[0,0.5],[1,0.5]];portConstraint=eastwest;fontFamily=Courier New;" parent="zkfFHV4jXpPFQw0GAbJ--0" vertex="1">
          <mxGeometry y="26" width="260" height="26" as="geometry"/>
        </mxCell>
        <mxCell id="zkfFHV4jXpPFQw0GAbJ--2" value="int numberOFMalls&#xa;" style="text;align=left;verticalAlign=top;spacingLeft=4;spacingRight=4;overflow=hidden;rotatable=0;points=[[0,0.5],[1,0.5]];portConstraint=eastwest;rounded=0;shadow=0;html=0;" parent="zkfFHV4jXpPFQw0GAbJ--0" vertex="1">
          <mxGeometry y="52" width="260" height="26" as="geometry"/>
        </mxCell>
        <mxCell id="zkfFHV4jXpPFQw0GAbJ--3" value="Dictionary&lt;string, Mall&gt; MallList" style="text;align=left;verticalAlign=top;spacingLeft=4;spacingRight=4;overflow=hidden;rotatable=0;points=[[0,0.5],[1,0.5]];portConstraint=eastwest;rounded=0;shadow=0;html=0;" parent="zkfFHV4jXpPFQw0GAbJ--0" vertex="1">
          <mxGeometry y="78" width="260" height="26" as="geometry"/>
        </mxCell>
        <mxCell id="zkfFHV4jXpPFQw0GAbJ--4" value="" style="line;html=1;strokeWidth=1;align=left;verticalAlign=middle;spacingTop=-1;spacingLeft=3;spacingRight=3;rotatable=0;labelPosition=right;points=[];portConstraint=eastwest;" parent="zkfFHV4jXpPFQw0GAbJ--0" vertex="1">
          <mxGeometry y="104" width="260" height="36" as="geometry"/>
        </mxCell>
        <mxCell id="Tj8jSvptjdfWHOdPi4JO-0" value="&amp;nbsp;AddMall()" style="text;html=1;align=left;verticalAlign=middle;resizable=0;points=[];autosize=1;fontFamily=Courier New;" vertex="1" parent="zkfFHV4jXpPFQw0GAbJ--0">
          <mxGeometry y="140" width="260" height="20" as="geometry"/>
        </mxCell>
        <mxCell id="Tj8jSvptjdfWHOdPi4JO-1" value="&amp;nbsp;RemoveMall()" style="text;html=1;align=left;verticalAlign=middle;resizable=0;points=[];autosize=1;fontFamily=Courier New;" vertex="1" parent="zkfFHV4jXpPFQw0GAbJ--0">
          <mxGeometry y="160" width="260" height="20" as="geometry"/>
        </mxCell>
        <mxCell id="Tj8jSvptjdfWHOdPi4JO-2" value="&amp;nbsp;EditMall()" style="text;html=1;align=left;verticalAlign=middle;resizable=0;points=[];autosize=1;fontFamily=Courier New;" vertex="1" parent="zkfFHV4jXpPFQw0GAbJ--0">
          <mxGeometry y="180" width="260" height="20" as="geometry"/>
        </mxCell>
        <mxCell id="Tj8jSvptjdfWHOdPi4JO-3" value="&amp;nbsp;ChangeCurrentMall()" style="text;html=1;align=left;verticalAlign=middle;resizable=0;points=[];autosize=1;fontFamily=Courier New;" vertex="1" parent="zkfFHV4jXpPFQw0GAbJ--0">
          <mxGeometry y="200" width="260" height="20" as="geometry"/>
        </mxCell>
        <mxCell id="Tj8jSvptjdfWHOdPi4JO-4" value="&amp;nbsp;GetMalls()" style="text;html=1;align=left;verticalAlign=middle;resizable=0;points=[];autosize=1;fontFamily=Courier New;" vertex="1" parent="zkfFHV4jXpPFQw0GAbJ--0">
          <mxGeometry y="220" width="260" height="20" as="geometry"/>
        </mxCell>
        <mxCell id="zkfFHV4jXpPFQw0GAbJ--17" value="Address" style="swimlane;fontStyle=0;align=center;verticalAlign=top;childLayout=stackLayout;horizontal=1;startSize=26;horizontalStack=0;resizeParent=1;resizeLast=0;collapsible=1;marginBottom=0;rounded=0;shadow=0;strokeWidth=1;" parent="WIyWlLk6GJQsqaUBKTNV-1" vertex="1">
          <mxGeometry x="850" y="100" width="160" height="360" as="geometry">
            <mxRectangle x="550" y="140" width="160" height="26" as="alternateBounds"/>
          </mxGeometry>
        </mxCell>
        <mxCell id="zkfFHV4jXpPFQw0GAbJ--18" value="Street" style="text;align=left;verticalAlign=top;spacingLeft=4;spacingRight=4;overflow=hidden;rotatable=0;points=[[0,0.5],[1,0.5]];portConstraint=eastwest;" parent="zkfFHV4jXpPFQw0GAbJ--17" vertex="1">
          <mxGeometry y="26" width="160" height="26" as="geometry"/>
        </mxCell>
        <mxCell id="zkfFHV4jXpPFQw0GAbJ--19" value="City" style="text;align=left;verticalAlign=top;spacingLeft=4;spacingRight=4;overflow=hidden;rotatable=0;points=[[0,0.5],[1,0.5]];portConstraint=eastwest;rounded=0;shadow=0;html=0;" parent="zkfFHV4jXpPFQw0GAbJ--17" vertex="1">
          <mxGeometry y="52" width="160" height="26" as="geometry"/>
        </mxCell>
        <mxCell id="zkfFHV4jXpPFQw0GAbJ--20" value="State" style="text;align=left;verticalAlign=top;spacingLeft=4;spacingRight=4;overflow=hidden;rotatable=0;points=[[0,0.5],[1,0.5]];portConstraint=eastwest;rounded=0;shadow=0;html=0;" parent="zkfFHV4jXpPFQw0GAbJ--17" vertex="1">
          <mxGeometry y="78" width="160" height="26" as="geometry"/>
        </mxCell>
        <mxCell id="zkfFHV4jXpPFQw0GAbJ--21" value="Postal Code" style="text;align=left;verticalAlign=top;spacingLeft=4;spacingRight=4;overflow=hidden;rotatable=0;points=[[0,0.5],[1,0.5]];portConstraint=eastwest;rounded=0;shadow=0;html=0;" parent="zkfFHV4jXpPFQw0GAbJ--17" vertex="1">
          <mxGeometry y="104" width="160" height="26" as="geometry"/>
        </mxCell>
        <mxCell id="zkfFHV4jXpPFQw0GAbJ--22" value="Country" style="text;align=left;verticalAlign=top;spacingLeft=4;spacingRight=4;overflow=hidden;rotatable=0;points=[[0,0.5],[1,0.5]];portConstraint=eastwest;rounded=0;shadow=0;html=0;" parent="zkfFHV4jXpPFQw0GAbJ--17" vertex="1">
          <mxGeometry y="130" width="160" height="26" as="geometry"/>
        </mxCell>
        <mxCell id="zkfFHV4jXpPFQw0GAbJ--23" value="" style="line;html=1;strokeWidth=1;align=left;verticalAlign=middle;spacingTop=-1;spacingLeft=3;spacingRight=3;rotatable=0;labelPosition=right;points=[];portConstraint=eastwest;" parent="zkfFHV4jXpPFQw0GAbJ--17" vertex="1">
          <mxGeometry y="156" width="160" height="8" as="geometry"/>
        </mxCell>
        <mxCell id="zkfFHV4jXpPFQw0GAbJ--24" value="Validate" style="text;align=left;verticalAlign=top;spacingLeft=4;spacingRight=4;overflow=hidden;rotatable=0;points=[[0,0.5],[1,0.5]];portConstraint=eastwest;" parent="zkfFHV4jXpPFQw0GAbJ--17" vertex="1">
          <mxGeometry y="164" width="160" height="26" as="geometry"/>
        </mxCell>
        <mxCell id="zkfFHV4jXpPFQw0GAbJ--25" value="Output As Label" style="text;align=left;verticalAlign=top;spacingLeft=4;spacingRight=4;overflow=hidden;rotatable=0;points=[[0,0.5],[1,0.5]];portConstraint=eastwest;" parent="zkfFHV4jXpPFQw0GAbJ--17" vertex="1">
          <mxGeometry y="190" width="160" height="26" as="geometry"/>
        </mxCell>
        <mxCell id="Tj8jSvptjdfWHOdPi4JO-5" value="Activity Manager" style="swimlane;fontStyle=2;align=center;verticalAlign=top;childLayout=stackLayout;horizontal=1;startSize=26;horizontalStack=0;resizeParent=1;resizeLast=0;collapsible=1;marginBottom=0;rounded=0;shadow=0;strokeWidth=1;fontFamily=Courier New;" vertex="1" parent="WIyWlLk6GJQsqaUBKTNV-1">
          <mxGeometry x="320" y="40" width="380" height="200" as="geometry">
            <mxRectangle x="230" y="140" width="160" height="26" as="alternateBounds"/>
          </mxGeometry>
        </mxCell>
        <mxCell id="Tj8jSvptjdfWHOdPi4JO-8" value="Dictionary&lt;string, Activity&gt; ActivityList" style="text;align=left;verticalAlign=top;spacingLeft=4;spacingRight=4;overflow=hidden;rotatable=0;points=[[0,0.5],[1,0.5]];portConstraint=eastwest;rounded=0;shadow=0;html=0;" vertex="1" parent="Tj8jSvptjdfWHOdPi4JO-5">
          <mxGeometry y="26" width="380" height="26" as="geometry"/>
        </mxCell>
        <mxCell id="Tj8jSvptjdfWHOdPi4JO-9" value="" style="line;html=1;strokeWidth=1;align=left;verticalAlign=middle;spacingTop=-1;spacingLeft=3;spacingRight=3;rotatable=0;labelPosition=right;points=[];portConstraint=eastwest;" vertex="1" parent="Tj8jSvptjdfWHOdPi4JO-5">
          <mxGeometry y="52" width="380" height="36" as="geometry"/>
        </mxCell>
        <mxCell id="Tj8jSvptjdfWHOdPi4JO-10" value="&amp;nbsp;AddActivity()" style="text;html=1;align=left;verticalAlign=middle;resizable=0;points=[];autosize=1;fontFamily=Courier New;" vertex="1" parent="Tj8jSvptjdfWHOdPi4JO-5">
          <mxGeometry y="88" width="380" height="20" as="geometry"/>
        </mxCell>
        <mxCell id="Tj8jSvptjdfWHOdPi4JO-11" value="&amp;nbsp;RemoveActivity()" style="text;html=1;align=left;verticalAlign=middle;resizable=0;points=[];autosize=1;fontFamily=Courier New;" vertex="1" parent="Tj8jSvptjdfWHOdPi4JO-5">
          <mxGeometry y="108" width="380" height="20" as="geometry"/>
        </mxCell>
        <mxCell id="Tj8jSvptjdfWHOdPi4JO-12" value="&amp;nbsp;EditActivity()" style="text;html=1;align=left;verticalAlign=middle;resizable=0;points=[];autosize=1;fontFamily=Courier New;" vertex="1" parent="Tj8jSvptjdfWHOdPi4JO-5">
          <mxGeometry y="128" width="380" height="20" as="geometry"/>
        </mxCell>
        <mxCell id="Tj8jSvptjdfWHOdPi4JO-14" value="&amp;nbsp;GetActivities()" style="text;html=1;align=left;verticalAlign=middle;resizable=0;points=[];autosize=1;fontFamily=Courier New;" vertex="1" parent="Tj8jSvptjdfWHOdPi4JO-5">
          <mxGeometry y="148" width="380" height="20" as="geometry"/>
        </mxCell>
        <mxCell id="Tj8jSvptjdfWHOdPi4JO-15" value="&amp;nbsp;ReloadActivityList() //Called when mall is changed" style="text;html=1;align=left;verticalAlign=middle;resizable=0;points=[];autosize=1;fontFamily=Courier New;" vertex="1" parent="Tj8jSvptjdfWHOdPi4JO-5">
          <mxGeometry y="168" width="380" height="20" as="geometry"/>
        </mxCell>
        <mxCell id="Tj8jSvptjdfWHOdPi4JO-16" value="Room Manager" style="swimlane;fontStyle=2;align=center;verticalAlign=top;childLayout=stackLayout;horizontal=1;startSize=26;horizontalStack=0;resizeParent=1;resizeLast=0;collapsible=1;marginBottom=0;rounded=0;shadow=0;strokeWidth=1;fontFamily=Courier New;" vertex="1" parent="WIyWlLk6GJQsqaUBKTNV-1">
          <mxGeometry x="320" y="250" width="380" height="200" as="geometry">
            <mxRectangle x="230" y="140" width="160" height="26" as="alternateBounds"/>
          </mxGeometry>
        </mxCell>
        <mxCell id="Tj8jSvptjdfWHOdPi4JO-17" value="Dictionary&lt;string, Room&gt; Rooms" style="text;align=left;verticalAlign=top;spacingLeft=4;spacingRight=4;overflow=hidden;rotatable=0;points=[[0,0.5],[1,0.5]];portConstraint=eastwest;rounded=0;shadow=0;html=0;" vertex="1" parent="Tj8jSvptjdfWHOdPi4JO-16">
          <mxGeometry y="26" width="380" height="26" as="geometry"/>
        </mxCell>
        <mxCell id="Tj8jSvptjdfWHOdPi4JO-18" value="" style="line;html=1;strokeWidth=1;align=left;verticalAlign=middle;spacingTop=-1;spacingLeft=3;spacingRight=3;rotatable=0;labelPosition=right;points=[];portConstraint=eastwest;" vertex="1" parent="Tj8jSvptjdfWHOdPi4JO-16">
          <mxGeometry y="52" width="380" height="36" as="geometry"/>
        </mxCell>
        <mxCell id="Tj8jSvptjdfWHOdPi4JO-19" value="&amp;nbsp;AddRoom()" style="text;html=1;align=left;verticalAlign=middle;resizable=0;points=[];autosize=1;fontFamily=Courier New;" vertex="1" parent="Tj8jSvptjdfWHOdPi4JO-16">
          <mxGeometry y="88" width="380" height="20" as="geometry"/>
        </mxCell>
        <mxCell id="Tj8jSvptjdfWHOdPi4JO-20" value="&amp;nbsp;RemoveRoom()" style="text;html=1;align=left;verticalAlign=middle;resizable=0;points=[];autosize=1;fontFamily=Courier New;" vertex="1" parent="Tj8jSvptjdfWHOdPi4JO-16">
          <mxGeometry y="108" width="380" height="20" as="geometry"/>
        </mxCell>
        <mxCell id="Tj8jSvptjdfWHOdPi4JO-21" value="&amp;nbsp;EditRoom()" style="text;html=1;align=left;verticalAlign=middle;resizable=0;points=[];autosize=1;fontFamily=Courier New;" vertex="1" parent="Tj8jSvptjdfWHOdPi4JO-16">
          <mxGeometry y="128" width="380" height="20" as="geometry"/>
        </mxCell>
        <mxCell id="Tj8jSvptjdfWHOdPi4JO-22" value="&amp;nbsp;GetRoom()" style="text;html=1;align=left;verticalAlign=middle;resizable=0;points=[];autosize=1;fontFamily=Courier New;" vertex="1" parent="Tj8jSvptjdfWHOdPi4JO-16">
          <mxGeometry y="148" width="380" height="20" as="geometry"/>
        </mxCell>
        <mxCell id="Tj8jSvptjdfWHOdPi4JO-23" value="&amp;nbsp;ReloadRoomList() //Called when mall is changed" style="text;html=1;align=left;verticalAlign=middle;resizable=0;points=[];autosize=1;fontFamily=Courier New;" vertex="1" parent="Tj8jSvptjdfWHOdPi4JO-16">
          <mxGeometry y="168" width="380" height="20" as="geometry"/>
        </mxCell>
        <mxCell id="Tj8jSvptjdfWHOdPi4JO-45" value="Program Manager" style="swimlane;fontStyle=1;align=center;verticalAlign=top;childLayout=stackLayout;horizontal=1;startSize=26;horizontalStack=0;resizeParent=1;resizeParentMax=0;resizeLast=0;collapsible=1;marginBottom=0;fontFamily=Courier New;" vertex="1" parent="WIyWlLk6GJQsqaUBKTNV-1">
          <mxGeometry x="320" y="470" width="380" height="190" as="geometry"/>
        </mxCell>
        <mxCell id="Tj8jSvptjdfWHOdPi4JO-46" value="ActivityManager m_CurrentActivityManager&#xa;" style="text;strokeColor=none;fillColor=none;align=left;verticalAlign=top;spacingLeft=4;spacingRight=4;overflow=hidden;rotatable=0;points=[[0,0.5],[1,0.5]];portConstraint=eastwest;" vertex="1" parent="Tj8jSvptjdfWHOdPi4JO-45">
          <mxGeometry y="26" width="380" height="26" as="geometry"/>
        </mxCell>
        <mxCell id="Tj8jSvptjdfWHOdPi4JO-51" value="MallManager m_CurrentMallManager&#xa;" style="text;strokeColor=none;fillColor=none;align=left;verticalAlign=top;spacingLeft=4;spacingRight=4;overflow=hidden;rotatable=0;points=[[0,0.5],[1,0.5]];portConstraint=eastwest;" vertex="1" parent="Tj8jSvptjdfWHOdPi4JO-45">
          <mxGeometry y="52" width="380" height="26" as="geometry"/>
        </mxCell>
        <mxCell id="Tj8jSvptjdfWHOdPi4JO-62" value="RoomManager m_CurrentMallManager" style="text;strokeColor=none;fillColor=none;align=left;verticalAlign=top;spacingLeft=4;spacingRight=4;overflow=hidden;rotatable=0;points=[[0,0.5],[1,0.5]];portConstraint=eastwest;" vertex="1" parent="Tj8jSvptjdfWHOdPi4JO-45">
          <mxGeometry y="78" width="380" height="26" as="geometry"/>
        </mxCell>
        <mxCell id="Tj8jSvptjdfWHOdPi4JO-47" value="" style="line;strokeWidth=1;fillColor=none;align=left;verticalAlign=middle;spacingTop=-1;spacingLeft=3;spacingRight=3;rotatable=0;labelPosition=right;points=[];portConstraint=eastwest;" vertex="1" parent="Tj8jSvptjdfWHOdPi4JO-45">
          <mxGeometry y="104" width="380" height="8" as="geometry"/>
        </mxCell>
        <mxCell id="Tj8jSvptjdfWHOdPi4JO-48" value="+ method(type): type" style="text;strokeColor=none;fillColor=none;align=left;verticalAlign=top;spacingLeft=4;spacingRight=4;overflow=hidden;rotatable=0;points=[[0,0.5],[1,0.5]];portConstraint=eastwest;" vertex="1" parent="Tj8jSvptjdfWHOdPi4JO-45">
          <mxGeometry y="112" width="380" height="26" as="geometry"/>
        </mxCell>
        <mxCell id="Tj8jSvptjdfWHOdPi4JO-64" value="+ method(type): type" style="text;strokeColor=none;fillColor=none;align=left;verticalAlign=top;spacingLeft=4;spacingRight=4;overflow=hidden;rotatable=0;points=[[0,0.5],[1,0.5]];portConstraint=eastwest;" vertex="1" parent="Tj8jSvptjdfWHOdPi4JO-45">
          <mxGeometry y="138" width="380" height="26" as="geometry"/>
        </mxCell>
        <mxCell id="Tj8jSvptjdfWHOdPi4JO-50" value="+ method(type): type" style="text;strokeColor=none;fillColor=none;align=left;verticalAlign=top;spacingLeft=4;spacingRight=4;overflow=hidden;rotatable=0;points=[[0,0.5],[1,0.5]];portConstraint=eastwest;" vertex="1" parent="Tj8jSvptjdfWHOdPi4JO-45">
          <mxGeometry y="164" width="380" height="26" as="geometry"/>
        </mxCell>
      </root>
    </mxGraphModel>
  </diagram>
</mxfile>
